P1
# CREATOR: GIMP PNM Filter Version 1.1
78 24
0000000000000000000000000000000000000000000000000000000000000000000000
0000000000000000000000000000000000000000000000000000000000000000000000
0000000000000000000000001110000000000000000000000000000000000000000000
0000000000000010000000000000011111111110000011111111100000011111111110
0111111111111100000001110000000000001111000011100000110000111100000111
0000000000000011100000000000011110000000000111000000001000001100000011
0000011000000000000000111000000000001111100000000011100000000000000011
0000001110000111000000000000001110000000000011011100000000110000000000
0000001100000011100001110000000000000011100000000001110111000000011100
0000000000000011000000110000011100000000000000111000000000011000110000
0001100000000000000000110000011100000110000000000000001110000000000110
0011100000011000000000000000001100011110000001111111110000000011100000
0000111000111000000110000011111110000011111111000000011111111100000000
1110000000001100000110000001100000011111100000110011110000000110000000
0000000011100000000011000001110000011100000000011000001100001110000001
1100000000000000111000000001100000001100000111000000000110000011000001
1100000111000000000000001110000000011111111111000001110000000001100000
1100000111000001110000000000000011100000000111111111111000001110000000
0110000011000000110000011100000000000000111000000011100000000110000001
1100000001100000110000001110000110000000000000001110000000110000000001
1000000011111011111000001100000001100001111111111000000011100000011100
0000000111000000011111111110000011000000011100011111111110000000111000
0001100000000000110000000000111000000000000000000000000000000000000000
0000000000000000000000000000000000000000000000000000000000000000000000
0000000000000000000000000000000000000000000000000000000000000000000000
0000000000000000000000000000000000000000000000000000000000000000000000
0000000000000000000000000000000000000000000000000000